<svg width="800" height="600" viewBox="0 0 800 600" fill="none" xmlns="http://www.w3.org/2000/svg">
  <defs>
    <linearGradient id="grad-lime" x1="0" y1="0" x2="1" y2="1">
      <stop offset="0%" stop-color="#A3E635"/>
      <stop offset="100%" stop-color="#4ADE80"/>
    </linearGradient>
  </defs>
  <rect width="800" height="600" fill="url(#grad-lime)" fill-opacity="0.25"/>
  <rect x="90" y="110" width="620" height="380" rx="32" fill="#0F172A" fill-opacity="0.55"/>
  <g stroke="#E2E8F0" stroke-opacity="0.5" stroke-width="2">
    <path d="M140 180H660"/>
    <path d="M140 240H660"/>
    <path d="M140 300H660"/>
    <path d="M140 360H660"/>
    <path d="M140 420H660"/>
    <path d="M200 150V450"/>
    <path d="M320 150V450"/>
    <path d="M440 150V450"/>
    <path d="M560 150V450"/>
  </g>
  <path d="M200 390L320 320L440 360L560 240" stroke="#F8FAFC" stroke-opacity="0.85" stroke-width="8" stroke-linecap="round" stroke-linejoin="round"/>
  <circle cx="200" cy="390" r="10" fill="#F8FAFC"/>
  <circle cx="320" cy="320" r="10" fill="#F8FAFC"/>
  <circle cx="440" cy="360" r="10" fill="#F8FAFC"/>
  <circle cx="560" cy="240" r="10" fill="#F8FAFC"/>
</svg>
