<svg width="800" height="600" viewBox="0 0 800 600" fill="none" xmlns="http://www.w3.org/2000/svg">
  <defs>
    <linearGradient id="grad-indigo" x1="0" y1="0" x2="1" y2="1">
      <stop offset="0%" stop-color="#4338CA"/>
      <stop offset="100%" stop-color="#60A5FA"/>
    </linearGradient>
  </defs>
  <rect width="800" height="600" fill="url(#grad-indigo)" fill-opacity="0.35"/>
  <rect x="240" y="160" width="320" height="280" rx="36" fill="#0F172A" fill-opacity="0.7"/>
  <rect x="290" y="210" width="220" height="180" rx="24" fill="#1E293B" fill-opacity="0.7"/>
  <text x="400" y="320" text-anchor="middle" font-family="'Segoe UI', sans-serif" font-size="64" fill="#E2E8F0" font-weight="700">AI</text>
  <g stroke="#E2E8F0" stroke-opacity="0.65" stroke-width="6" stroke-linecap="round">
    <path d="M400 120V70"/>
    <path d="M400 530V480"/>
    <path d="M210 300H160"/>
    <path d="M640 300H590"/>
    <path d="M260 180L220 140"/>
    <path d="M540 180L580 140"/>
    <path d="M260 420L220 460"/>
    <path d="M540 420L580 460"/>
  </g>
  <circle cx="400" cy="70" r="10" fill="#E2E8F0"/>
  <circle cx="400" cy="530" r="10" fill="#E2E8F0"/>
  <circle cx="160" cy="300" r="10" fill="#E2E8F0"/>
  <circle cx="640" cy="300" r="10" fill="#E2E8F0"/>
  <circle cx="220" cy="140" r="10" fill="#E2E8F0"/>
  <circle cx="580" cy="140" r="10" fill="#E2E8F0"/>
  <circle cx="220" cy="460" r="10" fill="#E2E8F0"/>
  <circle cx="580" cy="460" r="10" fill="#E2E8F0"/>
</svg>
