<svg width="800" height="600" viewBox="0 0 800 600" fill="none" xmlns="http://www.w3.org/2000/svg">
  <defs>
    <linearGradient id="grad-teal" x1="0" y1="0" x2="1" y2="1">
      <stop offset="0%" stop-color="#0EA5E9"/>
      <stop offset="100%" stop-color="#38BDF8"/>
    </linearGradient>
  </defs>
  <rect width="800" height="600" fill="url(#grad-teal)" fill-opacity="0.35"/>
  <rect x="120" y="160" width="560" height="320" rx="28" fill="#0F172A" fill-opacity="0.55"/>
  <rect x="170" y="360" width="60" height="80" rx="8" fill="#F8FAFC" fill-opacity="0.9"/>
  <rect x="250" y="320" width="60" height="120" rx="8" fill="#F8FAFC" fill-opacity="0.9"/>
  <rect x="330" y="280" width="60" height="160" rx="8" fill="#F8FAFC" fill-opacity="0.9"/>
  <rect x="410" y="250" width="60" height="190" rx="8" fill="#F8FAFC" fill-opacity="0.9"/>
  <rect x="490" y="210" width="60" height="230" rx="8" fill="#FBBF24" fill-opacity="0.9"/>
  <path d="M170 380L270 340L360 300L450 270L540 220" stroke="#F97316" stroke-width="10" stroke-linecap="round" stroke-linejoin="round"/>
  <circle cx="170" cy="380" r="10" fill="#F97316"/>
  <circle cx="270" cy="340" r="10" fill="#F97316"/>
  <circle cx="360" cy="300" r="10" fill="#F97316"/>
  <circle cx="450" cy="270" r="10" fill="#F97316"/>
  <circle cx="540" cy="220" r="10" fill="#F97316"/>
</svg>
