<svg width="800" height="600" viewBox="0 0 800 600" fill="none" xmlns="http://www.w3.org/2000/svg">
  <defs>
    <linearGradient id="grad-sky" x1="0" y1="0" x2="1" y2="1">
      <stop offset="0%" stop-color="#6EA8FF"/>
      <stop offset="100%" stop-color="#9AD2FF"/>
    </linearGradient>
  </defs>
  <rect width="800" height="600" fill="url(#grad-sky)" fill-opacity="0.35"/>
  <rect x="90" y="370" width="160" height="180" rx="18" fill="#0F172A" fill-opacity="0.65"/>
  <rect x="290" y="300" width="160" height="250" rx="18" fill="#0F172A" fill-opacity="0.7"/>
  <rect x="490" y="230" width="160" height="320" rx="18" fill="#0F172A" fill-opacity="0.75"/>
  <circle cx="170" cy="280" r="36" fill="#F8FAFC" fill-opacity="0.9"/>
  <rect x="150" y="320" width="40" height="80" rx="20" fill="#F8FAFC" fill-opacity="0.9"/>
  <circle cx="370" cy="240" r="38" fill="#E2E8F0" fill-opacity="0.9"/>
  <rect x="350" y="280" width="40" height="90" rx="20" fill="#E2E8F0" fill-opacity="0.9"/>
  <circle cx="570" cy="180" r="40" fill="#E2E8F0" fill-opacity="0.9"/>
  <rect x="550" y="220" width="40" height="100" rx="20" fill="#E2E8F0" fill-opacity="0.9"/>
  <path d="M206 294C264 270 312 250 342 244" stroke="#E2E8F0" stroke-width="10" stroke-linecap="round"/>
  <path d="M408 228C456 210 512 190 540 180" stroke="#E2E8F0" stroke-width="10" stroke-linecap="round"/>
</svg>
