<svg width="800" height="600" viewBox="0 0 800 600" fill="none" xmlns="http://www.w3.org/2000/svg">
  <defs>
    <linearGradient id="grad-emerald" x1="0" y1="0" x2="1" y2="1">
      <stop offset="0%" stop-color="#22C55E"/>
      <stop offset="100%" stop-color="#86EFAC"/>
    </linearGradient>
  </defs>
  <rect width="800" height="600" fill="url(#grad-emerald)" fill-opacity="0.25"/>
  <path d="M60 420C200 340 320 360 420 300C540 230 640 250 740 180" stroke="#0F172A" stroke-opacity="0.5" stroke-width="16" stroke-linecap="round"/>
  <path d="M60 500C200 420 320 440 420 380C540 310 640 330 740 260" stroke="#0F172A" stroke-opacity="0.35" stroke-width="12" stroke-linecap="round"/>
  <g stroke="#0F172A" stroke-opacity="0.25">
    <path d="M80 200C200 160 320 140 440 160C560 180 680 220 760 260" stroke-width="2"/>
    <path d="M80 240C200 200 320 180 440 200C560 220 680 260 760 300" stroke-width="2"/>
    <path d="M80 280C200 240 320 220 440 240C560 260 680 300 760 340" stroke-width="2"/>
    <path d="M80 320C200 280 320 260 440 280C560 300 680 340 760 380" stroke-width="2"/>
  </g>
  <circle cx="420" cy="300" r="18" fill="#F8FAFC" fill-opacity="0.8"/>
  <circle cx="420" cy="300" r="6" fill="#0F172A" fill-opacity="0.6"/>
</svg>
